<?xml version="1.0" standalone="no"?><!DOCTYPE svg PUBLIC "-//W3C//DTD SVG 1.1//EN" "http://www.w3.org/Graphics/SVG/1.1/DTD/svg11.dtd"><svg t="1685284686407" class="icon" viewBox="0 0 1024 1024" version="1.1" xmlns="http://www.w3.org/2000/svg" p-id="2397" xmlns:xlink="http://www.w3.org/1999/xlink" width="128" height="128"><path d="M59.37 0l-0.17 0.02C26.488 0.132 0 25.8 0 57.52v907.09a59.374 59.374 0 0 0 59.37 59.37h905.59a59.374 59.374 0 0 0 59.38-59.37V57.52c0-31.72-26.488-57.388-59.2-57.5l-0.18-0.02H59.37z m676.9 63.92a32.016 32.016 0 0 1 0 64.03H96.12a32.01 32.01 0 0 1 0-64.02h639.99l0.16-0.01z m96.02 0a32.025 32.025 0 0 1 0.03 64.05 32.025 32.025 0 1 1-0.03-64.05z m96.02 0a32.025 32.025 0 0 1 0.04 64.05 32.025 32.025 0 1 1-0.04-64.05zM62.38 195.39h896.21v736.16a32.008 32.008 0 0 1-32.01 32.02H94.39a32.008 32.008 0 0 1-32.01-32.02V195.39z m463.09 191.63c-39.16 0-68.447 12.452-87.88 37.29-19.453 24.838-29.17 58.049-29.17 99.51 0 41.5 9.717 74.683 29.17 99.54 19.433 24.838 48.72 37.27 87.88 37.27s68.447-12.432 87.88-37.27c19.453-24.838 29.17-58.04 29.17-99.54 0-41.461-9.717-74.653-29.17-99.51-19.453-24.838-48.74-37.29-87.88-37.29z m-256.49 0.12l-95.37 161.89v46.65h107.64v65.44h57.44v-65.44h30.26v-52.9h-30.26v-47.82h-57.44v47.82h-37.93l90.79-155.64h-65.13z m507.23 0l-95.37 161.89v46.65h107.64v65.44h57.45v-65.44h30.26v-52.9h-30.26v-47.82h-57.45v47.82h-37.93l90.79-155.64h-65.13z m-250.76 48.74c18.906 0 32.823 8.054 41.72 24.19 8.917 16.175 13.38 37.483 13.38 63.96 0 26.477-4.463 47.785-13.38 63.94-8.897 16.136-22.814 24.21-41.72 24.21s-32.813-8.074-41.71-24.21c-8.917-16.155-13.39-37.463-13.39-63.94 0-26.477 4.473-47.785 13.39-63.96 8.897-16.136 22.804-24.19 41.71-24.19z" p-id="2398"></path></svg>