<svg xmlns="http://www.w3.org/2000/svg" width="18" height="18"><defs><clipPath id="a"><path data-name="矩形 161" d="M0 0h11.876v11.889H0z"/></clipPath></defs><g data-name="icon_report form"><g data-name="组 127"><g data-name="组 126"><g data-name="组 125" clip-path="url(#a)" transform="translate(3 3)"><path data-name="路径 84" d="M10.678 8.315a1.19 1.19 0 0 0 1.187-1.187V1.195A1.19 1.19 0 0 0 10.678.008H1.185A1.19 1.19 0 0 0-.002 1.195v5.933a1.19 1.19 0 0 0 1.187 1.187h3.56v1.78H.888a.89.89 0 1 0 0 1.78h10.087a.89.89 0 0 0 0-1.78H7.118v-1.78zm-2.373-3.56a.594.594 0 0 1 1.187 0v1.186a.594.594 0 1 1-1.187 0zM3.558 5.941a.594.594 0 1 1-1.187 0V3.568a.594.594 0 0 1 1.187 0v2.373zm1.78-3.56a.594.594 0 1 1 1.187 0v3.56a.594.594 0 1 1-1.187 0zm0 0"/></g></g></g></g></svg>