<svg xmlns="http://www.w3.org/2000/svg" width="18" height="18" viewBox="0 0 18 18"><defs><style>.a,.b,.c{fill:none;}.b,.c{stroke:currentColor;stroke-linecap:round;stroke-miterlimit:3;stroke-width:1.5px;}.b{stroke-linejoin:round;}</style></defs><g transform="translate(-412 -189)"><rect class="a" width="18" height="18" transform="translate(412 189)"/><g transform="translate(412.699 190.84)"><path class="b" d="M7.065,1.5H2.2a.717.717,0,0,0-.7.738v9.59a.717.717,0,0,0,.7.738H14.717a.717.717,0,0,0,.7-.738V10.9" transform="translate(0 0.046)"/><path class="c" d="M6,11.25H8.951" transform="translate(-2.287 -4.909)"/><path class="c" d="M6,17.25h8.852" transform="translate(-2.287 -7.958)"/><circle class="b" cx="1.695" cy="1.695" r="1.695" transform="translate(9.976 1.146)"/><path class="b" d="M23.687,11.655A4.246,4.246,0,0,0,20.93,10.5,3.8,3.8,0,0,0,18,11.655" transform="translate(-9.155 -5.658)"/></g></g></svg>