<?xml version="1.0" standalone="no"?><!DOCTYPE svg PUBLIC "-//W3C//DTD SVG 1.1//EN" "http://www.w3.org/Graphics/SVG/1.1/DTD/svg11.dtd"><svg t="1685207173334" class="icon" viewBox="0 0 1024 1024" version="1.1" xmlns="http://www.w3.org/2000/svg" p-id="2766" width="128" height="128" xmlns:xlink="http://www.w3.org/1999/xlink"><path d="M704 437.333333c-52.650667 0-96 43.349333-96 96s43.349333 96 96 96 96-43.349333 96-96-43.349333-96-96-96z m0 64c18.048 0 32 13.952 32 32s-13.952 32-32 32-32-13.952-32-32 13.952-32 32-32z m-384-234.666666c-52.650667 0-96 43.349333-96 96s43.349333 96 96 96 96-43.349333 96-96-43.349333-96-96-96z m0 64c18.048 0 32 13.952 32 32s-13.952 32-32 32-32-13.952-32-32 13.952-32 32-32z m364.8-63.914667a32 32 0 0 0-23.210667 7.829333l-341.333333 298.666667a32 32 0 0 0-2.986667 45.162667 32 32 0 0 0 45.141334 2.986666l341.333333-298.666666a32 32 0 0 0 2.986667-45.141334 32 32 0 0 0-21.930667-10.837333zM298.666667 864a32 32 0 0 0-32 32 32 32 0 0 0 32 32h426.666666a32 32 0 0 0 32-32 32 32 0 0 0-32-32z m213.333333-128a32 32 0 0 0-32 32v128a32 32 0 0 0 32 32 32 32 0 0 0 32-32v-128a32 32 0 0 0-32-32zM170.666667 96C118.037333 96 74.666667 139.370667 74.666667 192v490.666667c0 52.629333 43.370667 96 96 96h682.666666c52.629333 0 96-43.370667 96-96V192c0-52.629333-43.370667-96-96-96z m0 64h682.666666c18.282667 0 32 13.717333 32 32v490.666667c0 18.282667-13.717333 32-32 32H170.666667c-18.282667 0-32-13.717333-32-32V192c0-18.282667 13.717333-32 32-32z" p-id="2767" fill="#333333"></path></svg>