<svg xmlns="http://www.w3.org/2000/svg" width="18" height="18"><defs><clipPath id="a"><path data-name="矩形 144" d="M0 0h13.487v13.796H0z"/></clipPath></defs><g data-name="组 107"><g data-name="组 106" transform="translate(2 2)" clip-path="url(#a)"><path data-name="路径 79" d="M6.47 2.767a6.628 6.628 0 0 1 4.2 1.179V.857A12.753 12.753 0 0 0 6.518.015a13.306 13.306 0 0 0-4.272.842v3.37l.332-.33s1.02-1.13 3.892-1.13zm-.854-1.628h.562V.577h.562v.562h.558v.562H6.74v.562h-.562v-.562h-.562zM4.248 9.084c-2.486.411-4.25 1.611-4.25 3.8a.874.874 0 0 0 .995.885c1.446 0 3.054.007 5.466.007v-.86c-.788-.342-1.561-3.845-2.211-3.832zm6.082-2.631a1.063 1.063 0 0 0 .708-.858.686.686 0 0 0-.395-.877c-.046 0-.1.035-.146.1a1.43 1.43 0 0 0-.424-.559 4.811 4.811 0 0 0-3.335-.8 5.965 5.965 0 0 0-3.493.817 1.357 1.357 0 0 0-.414.514.164.164 0 0 0-.119-.068.69.69 0 0 0-.39.88 1.061 1.061 0 0 0 .676.848 3.6 3.6 0 0 0 3.5 2.445 4.032 4.032 0 0 0 3.828-2.437zM9.225 9.084c-.647-.013-1.417 3.488-2.2 3.829v.86c2.412 0 4.015-.01 5.461-.007a.906.906 0 0 0 .995-.93c0-2.188-1.764-3.34-4.25-3.753zm0 0"/></g></g></svg>