<svg class="icon" viewBox="0 0 1024 1024" xmlns="http://www.w3.org/2000/svg" width="128" height="128"><defs><style/></defs><path d="M741.008 368c0 8.608-.288 17.088-.56 25.552.256 4.144.56 8.256.56 12.464C741.008 535.248 638.48 640 512 640S282.992 535.248 282.992 406.016c0-7.488.544-14.816 1.296-22.08-.112-5.312-.336-10.56-.336-15.936 0-88.32 13.088-170.608 35.6-240h385.872c22.496 69.392 35.584 151.68 35.584 240zM369.376 192a727.2 727.2 0 0 0-17.904 117.6A599.568 599.568 0 0 1 512 288c55.36 0 109.392 7.344 161.52 21.888A728.448 728.448 0 0 0 655.584 192H369.376zM512 581.504c90.192 0 163.584-78.72 163.584-175.488 0-9.92-.96-19.584-2.432-29.056a533.024 533.024 0 0 0-322.288-.032 187.104 187.104 0 0 0-2.448 29.088c0 96.768 73.392 175.488 163.584 175.488zm189.76 58.48C799.696 693.04 872.096 785.696 896 896h-57.952c-24.768-96.432-93.056-176.016-183.136-217.68a260.768 260.768 0 0 0 46.848-38.336zm-379.52 0a260.768 260.768 0 0 0 46.848 38.336C279.008 719.984 210.72 799.568 185.952 896H128c23.904-110.304 96.304-202.96 194.24-256.016zM642.864 768c0 25.168-14.976 46.72-36.576 57.168-10 34-38.864 70.496-94.976 70.496-70.192 0-96.912-56.768-97.728-94.928v-97.072c0-17.664 14.64-32 32.72-32 18.064 0 32.704 14.336 32.704 32v96.4c.544 11.152 5.504 31.6 32.304 31.6 14.048 0 22.272-5.504 27.136-12.528C522.48 807.456 512 788.992 512 768c0-35.344 29.296-64 65.424-64 36.144 0 65.44 28.656 65.44 64z"/></svg>