<svg xmlns="http://www.w3.org/2000/svg" width="18" height="18"><defs><clipPath id="a"><path data-name="矩形 162" d="M0 0h11.614v13.107H0z"/></clipPath></defs><g data-name="组 131"><g data-name="组 130"><g data-name="组 129" clip-path="url(#a)" transform="translate(3 3)"><path data-name="路径 86" d="M0 1.462A1.449 1.449 0 0 1 1.448.013h8.721a1.448 1.448 0 0 1 1.448 1.449v10.171a1.449 1.449 0 0 1-1.448 1.449H1.448A1.448 1.448 0 0 1 0 11.633zm2.178 1.455a.723.723 0 0 0 .722.726h5.816a.726.726 0 0 0 0-1.452H2.9a.728.728 0 0 0-.722.726zm0 2.9a.726.726 0 1 0 .722-.722.724.724 0 0 0-.726.726zm2.9 0a.726.726 0 1 0 .726-.726.725.725 0 0 0-.726.726zm2.9 0a.726.726 0 1 0 .726-.726.724.724 0 0 0-.726.726zm-5.8 2.182a.726.726 0 1 0 .722-.726.724.724 0 0 0-.726.726zm2.9 0a.726.726 0 1 0 .726-.726.724.724 0 0 0-.726.726zm2.9 0a.726.726 0 1 0 .726-.726.724.724 0 0 0-.726.726zm-5.8 2.178a.726.726 0 1 0 .722-.726.724.724 0 0 0-.726.726zm2.9 0a.726.726 0 1 0 .726-.726.725.725 0 0 0-.726.726zm2.9 0a.726.726 0 1 0 .726-.726.724.724 0 0 0-.726.726zm0 0"/></g></g></g></svg>