<svg xmlns="http://www.w3.org/2000/svg" width="18" height="18"><defs><style>.cls-3{fill:currentColor}</style><clipPath id="clip-path"><path id="矩形_219" data-name="矩形 219" d="M0 0h13.456v12.399H0z"/></clipPath></defs><g id="icon_luntan" transform="translate(-20 -650)"><g id="组_218" data-name="组 218" transform="translate(21.88 653.401)"><g id="组_219" data-name="组 219" transform="translate(.12)"><g id="组_218-2" data-name="组 218" clip-path="url(#clip-path)"><path id="路径_88" data-name="路径 88" class="cls-3" d="M1.658 2.851a1.566 1.566 0 0 1 1.565-1.564h7.735A1.362 1.362 0 0 0 9.6.02H1.365A1.367 1.367 0 0 0 0 1.385V7.1a1.367 1.367 0 0 0 1.365 1.368h.293V2.851zm0 0" transform="translate(-.002 -.02)"/></g></g><path id="路径_89" data-name="路径 89" class="cls-3" d="M111.753 82.15h-8.57a1.4 1.4 0 0 0-1.4 1.4v5.95a1.4 1.4 0 0 0 1.4 1.4h3.84v1.515a.445.445 0 0 0 .67.384l3.24-1.9h.82a1.4 1.4 0 0 0 1.4-1.4v-5.947a1.4 1.4 0 0 0-1.4-1.4zm-2.225 5.425a3.456 3.456 0 0 1-4.117.007.456.456 0 1 1 .543-.733 2.586 2.586 0 0 0 3.027 0 .456.456 0 1 1 .547.731zm0 0" transform="translate(-99.596 -80.482)"/></g></g></svg>