<svg xmlns="http://www.w3.org/2000/svg" width="14" height="14" viewBox="0 0 14 14"><defs><style>.a{fill:none;}.b{fill:#fff;}</style></defs><g transform="translate(-700.697 -310.697)"><rect class="a" width="14" height="14" transform="translate(700.697 310.697)"/><g transform="translate(700.9 311.884)"><path class="b" d="M238.167,231.084a1.209,1.209,0,1,0,1.205-1.12A1.165,1.165,0,0,0,238.167,231.084Zm10.908,1.448h-7.851a.211.211,0,0,1-.212-.207v-2.217a.21.21,0,0,1,.212-.207h5.1a2.73,2.73,0,0,1,2.964,2.408.209.209,0,0,1-.211.222Z" transform="translate(-236.339 -226.719)"/><path class="b" d="M13.594,7.415V11.55a.1.1,0,0,1-.015.054.045.045,0,0,1-.037.022H12.523c-.029,0-.053-.034-.053-.076V8.729c0-.171-.1-.307-.212-.306H1.331c-.115,0-.21.135-.212.306V11.55a.1.1,0,0,1-.016.055.044.044,0,0,1-.038.022H.053c-.029,0-.053-.034-.053-.076V.076C0,.034.024,0,.053,0H.909c.115,0,.21.135.212.306V6.2a.788.788,0,0,0,.127.436.362.362,0,0,0,.3.175H13.169c.23-.005.42.266.424.607Z" transform="translate(0 0)"/></g></g></svg>