<svg xmlns="http://www.w3.org/2000/svg" width="14" height="14" viewBox="0 0 14 14"><defs><style>.a{fill:none;}.b{fill:#517eff;}</style></defs><g transform="translate(-369 -565)"><rect class="a" width="14" height="14" transform="translate(369 565)"/><g transform="translate(369 565)"><path class="b" d="M77.4,70.4a7,7,0,1,0,7,7A7,7,0,0,0,77.4,70.4Zm0,1.014A5.986,5.986,0,1,1,71.414,77.4,5.986,5.986,0,0,1,77.4,71.414Z" transform="translate(-70.4 -70.4)"/><path class="b" d="M481.014,228.058v-3.551a.507.507,0,1,0-1.014,0v3.652a.913.913,0,0,0,.913.913h3.652a.507.507,0,0,0,0-1.014Z" transform="translate(-473.507 -221.565)"/></g></g></svg>