<svg xmlns="http://www.w3.org/2000/svg" width="60" height="60"><defs><style>.cls-4{fill:#fff}</style><clipPath id="clip-path"><path id="矩形_171" d="M0 0h30.615v30.72H0z"/></clipPath></defs><g id="icon_shouru" transform="translate(-511 -190)"><g id="矩形_169" transform="translate(511 190)" fill="#dce2f6" stroke="#738fee"><rect width="60" height="60" rx="4" stroke="none"/><rect x=".5" y=".5" width="59" height="59" rx="3.5" fill="none"/></g><g id="组_110" transform="translate(526 205)"><g id="组_109"><g id="组_108" clip-path="url(#clip-path)"><path id="路径_104" d="M28.631 15.851h-2.6V5.027A4.507 4.507 0 0 0 21.526.52H9.077A4.507 4.507 0 0 0 4.57 5.027v10.824h-2.6a1.978 1.978 0 0 0-1.287 3.472l13.33 11.383a1.978 1.978 0 0 0 2.576 0l13.33-11.383a1.978 1.978 0 0 0-1.288-3.472zm0 0" transform="translate(0 -.501)" fill="#738fee"/></g></g><path id="路径_105" class="cls-4" d="M280.795 358.49h7.589a1.035 1.035 0 0 1 0 2.07h-7.589a1.035 1.035 0 0 1 0-2.07zm0 0" transform="translate(-269.288 -345.072)"/><path id="路径_106" class="cls-4" d="M225.495 469.08h11.728a1.035 1.035 0 1 1 0 2.07h-11.728a1.035 1.035 0 0 1 0-2.07zm0 0" transform="translate(-216.058 -451.522)"/><path id="路径_107" class="cls-4" d="M383.2 368.745v6.555a1.035 1.035 0 1 1-2.07 0v-6.554a1.035 1.035 0 1 1 2.07 0zm0 0" transform="translate(-366.864 -353.946)"/><path id="路径_108" class="cls-4" d="M390.616 222.259l-5.366 5.366a1.035 1.035 0 1 1-1.464-1.464l5.366-5.366a1.035 1.035 0 0 1 1.464 1.463zm0 0" transform="translate(-369.068 -212.179)"/><path id="路径_109" class="cls-4" d="M233.8 221.063l5.366 5.366a1.035 1.035 0 0 1-1.464 1.464l-5.366-5.366a1.035 1.035 0 0 1 1.463-1.464zm0 0" transform="translate(-223.287 -212.437)"/></g></g></svg>