<svg xmlns="http://www.w3.org/2000/svg" width="16" height="16" viewBox="0 0 16 16"><defs><style>.a{fill:none;}.b{fill:#ff6130;}</style></defs><g transform="translate(-1201 -300)"><rect class="a" width="16" height="16" transform="translate(1201 300)"/><g transform="translate(1091.82 227.13)"><path class="b" d="M123.186,73.6a.727.727,0,0,0-.727-.727H121.9a.7.7,0,0,0-.651.409,1.109,1.109,0,0,1-2.046,0,.7.7,0,0,0-.651-.408h-.368a.7.7,0,0,0-.651.408,1.109,1.109,0,0,1-2.046,0,.7.7,0,0,0-.651-.408h-.353a.7.7,0,0,0-.651.408,1.109,1.109,0,0,1-2.046,0,.7.7,0,0,0-.651-.409h-.559a.727.727,0,0,0-.727.727v3.268h13.336V73.6Zm-5.98,11.461a3.994,3.994,0,0,1,5.437-3.241.393.393,0,0,0,.543-.364V77.535H109.851V88.2a.669.669,0,0,0,.667.667h7.392a.4.4,0,0,0,.286-.67A3.989,3.989,0,0,1,117.206,85.059Zm-1.346-3.924a.4.4,0,0,1-.4.4h-3.2a.4.4,0,0,1-.4-.4v-.529a.4.4,0,0,1,.4-.4h3.2a.4.4,0,0,1,.4.4Z" transform="translate(0)"/><path class="b" d="M551.624,584.74a3.334,3.334,0,1,0,3.334,3.334A3.334,3.334,0,0,0,551.624,584.74Zm1.494,4.487-.33.332a.266.266,0,0,1-.376,0l-1.288-1.279v-1.57a.266.266,0,0,1,.266-.266h.468a.266.266,0,0,1,.266.266v1.154l.993.986A.266.266,0,0,1,553.118,589.227Z" transform="translate(-430.446 -502.538)"/></g></g></svg>