<svg xmlns="http://www.w3.org/2000/svg" width="12" height="12" viewBox="0 0 12 12"><defs><style>.a{fill:none;}.b{fill:#fff;}</style></defs><g transform="translate(17167.259 12932.26)"><rect class="a" width="12" height="12" transform="translate(-17167.26 -12932.26)"/><g transform="translate(-17167 -12931.197)"><path class="b" d="M74.08,128.957l-.04-.044A3.192,3.192,0,0,0,71.79,128a3.261,3.261,0,0,0-1.092.189,3.181,3.181,0,0,0-1.157.726l-.206.206-.21-.206A3.168,3.168,0,0,0,66.873,128a3.184,3.184,0,0,0-2.249.915,3.1,3.1,0,0,0,0,4.434l4.176,4.112a.762.762,0,0,0,.536.214.842.842,0,0,0,.584-.242l4.12-4.092a3.1,3.1,0,0,0,.939-2.213A3.06,3.06,0,0,0,74.08,128.957Zm-9.009,4.075-.064-.069a2.565,2.565,0,0,1,0-3.672,2.616,2.616,0,0,1,1.866-.762,2.664,2.664,0,0,1,1.254.31,2.705,2.705,0,0,1,.613.451l.206.2.4.379,1.185,1.161.488.52a.6.6,0,0,1,.149.649.48.48,0,0,1-.113.169.516.516,0,0,1-.367.141.645.645,0,0,1-.464-.2l-1.491-1.5a.746.746,0,0,1-.117-.161.274.274,0,0,0-.318-.141.266.266,0,0,0-.2.282l-2.967,2.181Zm1.145,1.129-.379-.371-.4-.371,2.947-2.157.774.766a.282.282,0,0,0-.064.04l-2.822,2.064-.048.04Zm8.134-2.386a2.532,2.532,0,0,1-.693,1.209l-4.124,4.071a.286.286,0,0,1-.2.085.206.206,0,0,1-.149-.06l-.56-.548,2.326-1.681a.286.286,0,0,0,.085-.4.294.294,0,0,0-.4-.032l-2.378,1.741-.649-.641,2.5-1.822a.3.3,0,0,0,.1-.4.306.306,0,0,0-.423-.02l-2.531,1.85-.028.02-.621-.6,2.822-2.056a.855.855,0,0,0,.1-.1l.306.31a1.209,1.209,0,0,0,.851.355,1.052,1.052,0,0,0,.742-.29,1.012,1.012,0,0,0,.242-.355,1.133,1.133,0,0,0-.266-1.209l-.367-.371L71,130.787l-1.117-1.129-.165-.161.21-.206a2.673,2.673,0,0,1,3.733,0,2.532,2.532,0,0,1,.774,1.834A2.492,2.492,0,0,1,74.35,131.774Z" transform="translate(-63.592 -127.896)"/><path class="b" d="M61.744,129.876a.847.847,0,0,1-.6-.242l-4.18-4.12A3.225,3.225,0,0,1,56,123.228a3.181,3.181,0,0,1,.963-2.282A3.285,3.285,0,0,1,59.277,120a3.338,3.338,0,0,1,1.173.214,3.281,3.281,0,0,1,1.153.734l.137.133.137-.133a3.265,3.265,0,0,1,1.209-.754,3.312,3.312,0,0,1,3.434.754l.04.04a3.2,3.2,0,0,1-.04,4.527L62.4,129.606A.943.943,0,0,1,61.744,129.876ZM59.281,120.2a3.1,3.1,0,0,0-2.173.887,3,3,0,0,0,0,4.285l4.172,4.116a.718.718,0,0,0,.971-.028l4.128-4.088a3,3,0,0,0,.04-4.245l-.044-.04a3.1,3.1,0,0,0-2.169-.887,3.39,3.39,0,0,0-1.064.181,3.144,3.144,0,0,0-1.125.705l-.274.274-.278-.274a3.071,3.071,0,0,0-1.072-.685,3.225,3.225,0,0,0-1.109-.2Zm2.463,9.142a.319.319,0,0,1-.218-.089l-.645-.633L63.3,126.86a.214.214,0,0,0,.093-.145.137.137,0,0,0-.028-.109.2.2,0,0,0-.266,0l-2.447,1.79-.806-.782,2.592-1.895a.242.242,0,0,0,.1-.157.133.133,0,0,0-.024-.1.21.21,0,0,0-.282,0l-2.612,1.9-.085-.052-.689-.673,2.894-2.128a.258.258,0,0,0,.081-.081l.073-.1.4.4a1.092,1.092,0,0,0,.778.327.935.935,0,0,0,.891-.584,1.028,1.028,0,0,0-.246-1.1L63.36,123l-.032-.032-1.35-1.371.282-.274a2.761,2.761,0,0,1,1.931-.806h.032a2.717,2.717,0,0,1,1.915.794,2.669,2.669,0,0,1,.806,1.911,2.75,2.75,0,0,1-.085.673l-.02.073a2.669,2.669,0,0,1-.7,1.173l-4.124,4.092a.4.4,0,0,1-.274.113Zm-.56-.7.476.468a.109.109,0,0,0,.081.028.189.189,0,0,0,.133-.056L66,125a2.5,2.5,0,0,0,.665-1.145V123.8a2.487,2.487,0,0,0-.677-2.334,2.527,2.527,0,0,0-1.774-.73,2.588,2.588,0,0,0-1.822.73l-.133.133.089.093,1.117,1.125a.165.165,0,0,1,.036.04l.363.363a1.209,1.209,0,0,1,.3,1.318,1.129,1.129,0,0,1-1.076.709,1.314,1.314,0,0,1-.923-.4l-.23-.234-.048.04-2.725,2,.46.451,2.487-1.818a.4.4,0,0,1,.564.04.331.331,0,0,1,.06.254.443.443,0,0,1-.181.294l-2.419,1.754.5.5,2.318-1.689a.4.4,0,0,1,.544.052.335.335,0,0,1,.064.262.427.427,0,0,1-.169.274Zm-2.459-2.14L57.713,125.5l3.116-2.274.915.907-.121.064-.056.032-2.822,2.064Zm-.4-.657.286.282,2.777-2.016-.589-.629L58.019,125.5Zm-.806-.613h-.077l-.1-.1a2.729,2.729,0,0,1-.7-1.177,2.681,2.681,0,0,1,.7-2.652,2.761,2.761,0,0,1,1.935-.806,2.822,2.822,0,0,1,1.3.322,2.681,2.681,0,0,1,.641.484l1.774,1.741.492.524a.705.705,0,0,1,.173.754.569.569,0,0,1-.141.206.649.649,0,0,1-.439.169.754.754,0,0,1-.528-.214L61.071,123a.746.746,0,0,1-.133-.185.177.177,0,0,0-.206-.089.165.165,0,0,0-.125.177v.052l-.064.048L57.6,125.163l-.048.044Zm1.762-4.5a2.576,2.576,0,0,0-1.794.73,2.467,2.467,0,0,0-.742,1.766,2.544,2.544,0,0,0,.093.677,2.439,2.439,0,0,0,.653,1.088l2.918-2.136a.371.371,0,0,1,.274-.327.375.375,0,0,1,.435.189.572.572,0,0,0,.1.137l1.475,1.487a.544.544,0,0,0,.4.165.439.439,0,0,0,.294-.113.4.4,0,0,0,.089-.137.5.5,0,0,0-.121-.532l-.492-.524-1.786-1.741a2.672,2.672,0,0,0-.584-.431,2.632,2.632,0,0,0-1.209-.3Z" transform="translate(-56 -120)"/></g></g></svg>