<svg xmlns="http://www.w3.org/2000/svg" width="14.001" height="14" viewBox="0 0 14.001 14"><defs><style>.a{fill:none;}.b{fill:#517eff;}</style></defs><g transform="translate(-547.999 -595)"><rect class="a" width="14" height="14" transform="translate(548 595)"/><path class="b" d="M118.385,126.28l-.217-.279-.008-.008c-.071-.074-.272-.279-.6-.561-.393-.338-1.095-.837-1.15-.874l-.981-.593a1.133,1.133,0,0,0-.5-.109,1.211,1.211,0,0,0-.4.065c-.425.148-.821.817-.931,1.019-.051.093-.107.205-.155.3l-.015.031c-.06.119-.127.253-.2.383a.477.477,0,0,1-.371.253.265.265,0,0,1-.133-.035,10.919,10.919,0,0,1-2.231-1.632,7.339,7.339,0,0,1-1.722-2.214c-.018-.046-.016-.252.1-.31.161-.08.292-.133.408-.18l.027-.012a3.24,3.24,0,0,0,.5-.241c.078-.05.119-.073.155-.093l.018-.011a3.283,3.283,0,0,0,.312-.195l.078-.064.12-.108a1.035,1.035,0,0,0,.261-1.13l-.054-.155a10.269,10.269,0,0,0-.518-1.015c-.155-.266-.389-.619-.6-.9a3.248,3.248,0,0,0-1.082-1c-.005,0-.14-.075-.223-.112a1.332,1.332,0,0,0-1.062.01,3.737,3.737,0,0,0-1.156.731l-.073.062a3.336,3.336,0,0,0-1.4,2.81c.189,1.374,1.777,4.18,3.838,6.165s4.96,3.51,6.376,3.69a2.546,2.546,0,0,0,.328.021,3.6,3.6,0,0,0,2.4-1.168,4.131,4.131,0,0,0,.875-1.162,1.43,1.43,0,0,0-.032-1.384m-10.565-3.832a8.268,8.268,0,0,0,1.953,2.544,11.908,11.908,0,0,0,2.436,1.787,1.3,1.3,0,0,0,.652.177,1.535,1.535,0,0,0,1.283-.795c.082-.15.155-.3.235-.457l.033-.068c.037-.072.07-.14.1-.2a2.29,2.29,0,0,1,.391-.54.49.49,0,0,1,.061,0l.872.527.014.01c.212.151.735.531,1.028.784.256.22.421.383.475.436a.149.149,0,0,0,.021.02l.16.2a.7.7,0,0,1-.065.346,3.09,3.09,0,0,1-.641.837,2.535,2.535,0,0,1-1.678.888,1.558,1.558,0,0,1-.208-.014,13.77,13.77,0,0,1-5.786-3.406,13.061,13.061,0,0,1-3.527-5.557,2.371,2.371,0,0,1,1.032-1.867l.075-.062a2.751,2.751,0,0,1,.877-.566.423.423,0,0,1,.158-.041.24.24,0,0,1,.091.018c.037.017.1.05.137.07l.033.017a2.42,2.42,0,0,1,.718.692,9.184,9.184,0,0,1,.533.8c.147.254.293.536.434.837l.014.029.046.138c0,.008,0,.013.005.013l-.017.017-.03.03-.035.034c-.132.087-.178.112-.225.139s-.1.056-.213.126a2.3,2.3,0,0,1-.353.164c-.145.058-.3.124-.5.22a1.328,1.328,0,0,0-.593,1.664" transform="translate(443.42 478.803)"/></g></svg>