<svg xmlns="http://www.w3.org/2000/svg" width="14" height="14" viewBox="0 0 14 14"><defs><style>.a{fill:none;}.b{fill:#517eff;}</style></defs><g transform="translate(-323 -565)"><rect class="a" width="14" height="14" transform="translate(323 565)"/><g transform="translate(323 565)"><path class="b" d="M43.819,12.484,42.7,8.984a1.262,1.262,0,0,0-1.178-.817h-.992a.058.058,0,0,1-.062.058,7.05,7.05,0,0,0,1.364-3.558,4.97,4.97,0,0,0-9.921,0,5.932,5.932,0,0,0,1.24,3.558V8.167h-.93a1.2,1.2,0,0,0-1.178.817l-1.116,3.5a.7.7,0,0,0-.062.35A1.209,1.209,0,0,0,31.107,14H42.64a.831.831,0,0,0,.372-.058,1.168,1.168,0,0,0,.806-1.458ZM36.874.875A3.909,3.909,0,0,1,40.9,4.667a6.829,6.829,0,0,1-1.8,3.85,5.417,5.417,0,0,1-2.232,1.692,5.121,5.121,0,0,1-2.294-1.692,5.7,5.7,0,0,1-1.736-3.85A3.909,3.909,0,0,1,36.874.875Zm5.891,12.25H31.107a.285.285,0,0,1-.31-.292v-.058l1.116-3.5a.409.409,0,0,1,.31-.233h1.612V8.984c1.116,1.225,2.418,2.1,3.1,2.1s1.922-.817,2.976-2.1v.058h1.674a.314.314,0,0,1,.31.233l1.116,3.5a.479.479,0,0,1-.248.35Z" transform="translate(-29.867 0)"/><path class="b" d="M385.75,216.833a1.75,1.75,0,1,0-1.75-1.75A1.719,1.719,0,0,0,385.75,216.833Zm0-2.625a.875.875,0,1,1-.875.875A.9.9,0,0,1,385.75,214.208Z" transform="translate(-378.743 -210.416)"/></g></g></svg>