<svg xmlns="http://www.w3.org/2000/svg" width="44" height="44"><defs><clipPath id="a"><path d="M0 0h38.88v38.927H0z"/></clipPath></defs><g transform="translate(3 3)" clip-path="url(#a)"><path d="M35.627.006H3.233A3.3 3.3 0 0 0-.006 3.245v32.394a3.3 3.3 0 0 0 3.239 3.239h32.394a3.3 3.3 0 0 0 3.239-3.239V3.245A3.3 3.3 0 0 0 35.627.006zm-5.733 20.18a10.7 10.7 0 0 1-10.466 8.971 10.7 10.7 0 0 1-10.463-8.971 2.393 2.393 0 0 1-1.744-2.243 2.5 2.5 0 0 1 2.492-2.492 2.354 2.354 0 0 1 2.492 2.492 2.179 2.179 0 0 1-1.5 2.243 9.045 9.045 0 0 0 8.721 7.475 8.845 8.845 0 0 0 8.725-7.475 2.617 2.617 0 0 1-1.246-2.243 2.492 2.492 0 1 1 4.984 0 3.041 3.041 0 0 1-1.995 2.243zm6.73-14.449a1.7 1.7 0 0 1-1.745 1.749H3.981a1.7 1.7 0 0 1-1.744-1.749V3.993a1.7 1.7 0 0 1 1.744-1.744h30.9a1.7 1.7 0 0 1 1.743 1.744zm0 0" fill="#fff"/></g></svg>