<svg xmlns="http://www.w3.org/2000/svg" width="14" height="14" viewBox="0 0 14 14"><defs><style>.a{fill:none;}.b{fill:#517eff;}</style></defs><g transform="translate(-769.84 -603.84)"><rect class="a" width="14" height="14" transform="translate(769.84 603.84)"/><path class="b" d="M99.043,103.077v7.786h11.679V100.157h-1.947v.487a.487.487,0,1,1-.973,0v-.487h-5.84v.487a.487.487,0,1,1-.973,0v-.487H99.043V102.1h11.679v.973H99.043Zm2.92-3.893h5.84V98.7a.487.487,0,1,1,.973,0v.487h2.433a.468.468,0,0,1,.487.487V111.35a.468.468,0,0,1-.487.487H98.557a.468.468,0,0,1-.487-.487V99.67a.469.469,0,0,1,.487-.487h2.433V98.7a.487.487,0,1,1,.973,0v.487Zm-.487,5.84h.973a.487.487,0,1,1,0,.973h-.973a.487.487,0,1,1,0-.973Zm0,2.92h.973a.487.487,0,1,1,0,.973h-.973a.487.487,0,1,1,0-.973Zm2.92-2.92h.973a.487.487,0,1,1,0,.973H104.4a.487.487,0,1,1,0-.973Zm0,2.92h.973a.487.487,0,1,1,0,.973H104.4a.487.487,0,1,1,0-.973Zm2.92-2.92h.973a.487.487,0,1,1,0,.973h-.973a.487.487,0,1,1,0-.973Zm0,2.92h.973a.487.487,0,1,1,0,.973h-.973a.487.487,0,1,1,0-.973Z" transform="translate(671.956 505.817)"/></g></svg>