<svg xmlns="http://www.w3.org/2000/svg" width="14" height="14" viewBox="0 0 14 14"><defs><style>.a{fill:none;}.b{fill:#2f69e6;}</style></defs><g transform="translate(-1485 -599)"><rect class="a" width="14" height="14" transform="translate(1485 599)"/><g transform="translate(1421.01 369.478)"><path class="b" d="M77.768,235.827a2.36,2.36,0,0,0-.3-.36,16.043,16.043,0,0,0-1.549-1.535,7.716,7.716,0,0,0-9.864,0,16.15,16.15,0,0,0-1.549,1.535,2.384,2.384,0,0,0-.3.359,1.2,1.2,0,0,0,0,1.391,2.339,2.339,0,0,0,.3.36,16.1,16.1,0,0,0,1.549,1.535,7.716,7.716,0,0,0,9.864,0,16.2,16.2,0,0,0,1.549-1.535,2.37,2.37,0,0,0,.3-.359A1.2,1.2,0,0,0,77.768,235.827Zm-1.076.844c-.064.076-.158.185-.281.324a14.316,14.316,0,0,1-1.377,1.354,6.434,6.434,0,0,1-8.159,0,14.246,14.246,0,0,1-1.379-1.354c-.045-.05-.1-.109-.147-.169a.433.433,0,0,1,0-.57l.148-.169a14.335,14.335,0,0,1,1.377-1.354,6.436,6.436,0,0,1,8.16,0,14.354,14.354,0,0,1,1.378,1.354c.086.1.2.227.279.324a.2.2,0,0,1,0,.261Z"/><path class="b" d="M322.821,319.84a3,3,0,1,0,3,3A3,3,0,0,0,322.821,319.84Zm0,4.874a1.873,1.873,0,1,1,1.873-1.873,1.873,1.873,0,0,1-1.873,1.873Z" transform="translate(-251.83 -86.319)"/></g></g></svg>