<svg xmlns="http://www.w3.org/2000/svg" width="16" height="16" viewBox="0 0 16 16"><defs><style>.a{fill:none;}.b{fill:#fff;}</style></defs><g transform="translate(-12173 -5615)"><rect class="a" width="16" height="16" transform="translate(12173 5615)"/><path class="b" d="M98.911,107.293l-3.654-3.6.034-.044a7.144,7.144,0,0,0,1.526-4.413,6.892,6.892,0,1,0-6.889,7.041,6.8,6.8,0,0,0,4.529-1.74l.041-.037,3.646,3.563h.037v.031a.521.521,0,0,0,.309.1.554.554,0,0,0,.547-.559A.546.546,0,0,0,98.911,107.293Zm-8.983-2.139a5.923,5.923,0,1,1,5.794-5.922A5.866,5.866,0,0,1,89.927,105.154Z" transform="translate(12089.964 5522.809)"/></g></svg>