<svg xmlns="http://www.w3.org/2000/svg" width="12" height="12" viewBox="0 0 12 12"><defs><style>.a{fill:none;}.b{fill:#fff;}</style></defs><g transform="translate(17188.13 12932.13)"><rect class="a" width="12" height="12" transform="translate(-17188.129 -12932.13)"/><path class="b" d="M48.368,26.364a2.2,2.2,0,0,1,3.107-.1l.036.048.054.041,4,4.256a1.4,1.4,0,0,1-1.008,2.38h-.418v3.1c-.008,1.059-.5,1.575-1.32,1.575l-5.486,0a1.668,1.668,0,0,1-1.664-1.668V32.994h-.3a1.391,1.391,0,0,1-1.4-1.286l0-.116a1.376,1.376,0,0,1,.388-.967Zm2.371.525a1.256,1.256,0,0,0-1.682.127L45.04,31.282a.428.428,0,0,0-.126.31.445.445,0,0,0,.452.453h1.251v3.962a.719.719,0,0,0,.716.718h5.043a.716.716,0,0,0,.815-.718V32.044h1.367a.447.447,0,0,0,.328-.768l-3.975-4.228-.037-.028a.581.581,0,0,1-.055-.055Zm-1.813,4.1,1.042,1,1.042-1a.325.325,0,0,1,.445,0,.3.3,0,0,1,0,.428l-.726.7h.318a.3.3,0,1,1,0,.606h-.763v.386h.764a.3.3,0,1,1,0,.606h-.764v.84a.316.316,0,0,1-.631,0v-.84H48.89a.3.3,0,1,1,0-.606h.762v-.386h-.764a.3.3,0,1,1,0-.606h.317l-.726-.7a.3.3,0,0,1,0-.429A.325.325,0,0,1,48.926,30.987Z" transform="translate(-17232.098 -12957.805)"/></g></svg>