<svg xmlns="http://www.w3.org/2000/svg" width="16" height="16.25" viewBox="0 0 16 16.25"><defs><style>.a,.c{fill:none;}.b{fill:#fff;}.c{stroke:#fff;stroke-linecap:round;stroke-width:1.5px;}</style></defs><g transform="translate(-1573 -277.75)"><g transform="translate(1589 278) rotate(90)"><rect class="a" width="16" height="16"/><path class="b" d="M4.949,6.578.209,1.348a.848.848,0,0,1,0-1.116.669.669,0,0,1,1.012,0L6.466,6.02a.848.848,0,0,1,0,1.116L1.221,12.924a.682.682,0,0,1-.506.231.678.678,0,0,1-.506-.232.847.847,0,0,1,0-1.116l4.739-5.23" transform="translate(5.897 1.424)"/><line class="c" x1="8" transform="translate(0.5 8)"/></g><line class="c" x1="11" transform="translate(1575.5 293)"/></g></svg>