<svg xmlns="http://www.w3.org/2000/svg" width="14.001" height="14" viewBox="0 0 14.001 14"><defs><style>.a{fill:none;}.b{fill:#fff;}</style></defs><g transform="translate(-0.09 -0.091)"><rect class="a" width="14" height="14" transform="translate(0.09 0.091)"/><path class="b" d="M134.976,161.326a4.009,4.009,0,0,1,3.659-1.273,4.3,4.3,0,0,1,3.356,4.174c0,2.135-1.655,3.963-2.7,5.078a47.127,47.127,0,0,1-3.548,3.118,1.139,1.139,0,0,1-.783.3c-.806,0-1.772-.932-4.3-3.442C127.745,166.25,128,164.5,128,164.225a4.422,4.422,0,0,1,2.665-3.965,4.028,4.028,0,0,1,4.315,1.066Zm-1.226,2.625a.509.509,0,0,0-.713,0L131.5,165.44a.5.5,0,0,0-.006.709.509.509,0,0,0,.715.006l1.176-1.146,2.714,2.7a.509.509,0,0,0,.71.007l1.636-1.564a.5.5,0,0,0,.013-.709.509.509,0,0,0-.715-.013l-1.277,1.221-2.717-2.708Z" transform="translate(-127.9 -159.267)"/></g></svg>