<svg xmlns="http://www.w3.org/2000/svg" width="16" height="16" viewBox="0 0 16 16"><defs><style>.a{fill:none;}.b{fill:#fea104;}</style></defs><g transform="translate(-22895 5553)"><rect class="a" width="16" height="16" transform="translate(22895 -5553)"/><path class="b" d="M69.714,142.5H68.571v-1.257a.567.567,0,0,0-.443-.557A5.257,5.257,0,0,1,64,135.357v-.571h1.143v.571a4.128,4.128,0,0,0,3.2,4.214,1.7,1.7,0,0,1,1.371,1.686Zm5.714,0H74.286v-1.257a1.715,1.715,0,0,1,1.371-1.686,4.1,4.1,0,0,0,3.2-4.2v-.571H80v.571a5.257,5.257,0,0,1-4.129,5.329.567.567,0,0,0-.443.557Zm-3.414-4.571-.743-.671c-2.629-2.386-4.357-3.714-4.357-5.657a2.769,2.769,0,0,1,2.8-2.8,3.06,3.06,0,0,1,2.3,1.071,3.06,3.06,0,0,1,2.3-1.071,2.769,2.769,0,0,1,2.8,2.8c0,1.929-1.729,3.271-4.357,5.657Z" transform="translate(22831 -5680.65)"/></g></svg>