<svg xmlns="http://www.w3.org/2000/svg" width="60" height="60"><defs><clipPath id="a"><path d="M0 0h26.833v30.72H0z"/></clipPath></defs><g fill="#f5e6e0" stroke="#f18e62"><rect width="60" height="60" rx="4" stroke="none"/><rect x=".5" y=".5" width="59" height="59" rx="3.5" fill="none"/></g><g clip-path="url(#a)" transform="translate(17.023 14)"><path d="M20.123 14.693a.751.751 0 0 1-.807.658h-11.8a.751.751 0 0 1-.808-.658v-.6a.752.752 0 0 1 .808-.658h11.8a.751.751 0 0 1 .808.658v.6zm0 6.708a.751.751 0 0 1-.807.658h-11.8a.751.751 0 0 1-.808-.659v-.6a.752.752 0 0 1 .808-.659h11.8a.751.751 0 0 1 .808.658v.6zM13.415 2.894a1.916 1.916 0 1 1-1.913 1.917 1.916 1.916 0 0 1 1.916-1.916zm11.158-.007h-4.78a2.243 2.243 0 0 0-2.185-1.67h-2.366a2.016 2.016 0 0 0-3.685 0H9.148a2.249 2.249 0 0 0-2.184 1.67H2.185A2.163 2.163 0 0 0 .002 5.066v23.435a2.185 2.185 0 0 0 2.185 2.178h22.349a2.259 2.259 0 0 0 2.294-2.178V5.065a2.2 2.2 0 0 0-2.256-2.178zm0 0" fill="#f18e62"/></g></svg>