<svg xmlns="http://www.w3.org/2000/svg" width="14" height="14" viewBox="0 0 14 14"><defs><style>.a{fill:none;}.b{fill:#fff;}</style></defs><g transform="translate(17376.412 12976.412)"><rect class="a" width="14" height="14" transform="translate(-17376.412 -12976.412)"/><g transform="translate(-17375.471 -12975.996)"><path class="b" d="M111.141,67.5a6.059,6.059,0,1,0-7.941,7.941,5.941,5.941,0,0,0,1.574.426l.784,1.1.784-1.1a6.064,6.064,0,0,0,4.8-8.367Zm-5.583,7.582a5.223,5.223,0,1,1,5.223-5.223A5.228,5.228,0,0,1,105.559,75.081Z" transform="translate(-99.5 -63.8)"/><path class="b" d="M285.817,230.755v.833h2.4v2.506c0,.439-.09.684-.4.818a3.361,3.361,0,0,1-1.309.148,3.037,3.037,0,0,0-.3-.869c.372.022.811.022.922.015s.163-.029.163-.126V232.45h-1.473V235.8h-.922V232.45h-1.376v2.61h-.893v-3.472h2.268v-.833H282v-.862h2.983c-.112-.267-.253-.573-.379-.818l.878-.275c.187.342.432.789.558,1.093h2.745v.862Z" transform="translate(-279.32 -226.377)"/></g></g></svg>