<svg xmlns="http://www.w3.org/2000/svg" width="16.001" height="16" viewBox="0 0 16.001 16"><defs><style>.a{fill:none;}.b{fill:#fff;}</style></defs><g transform="translate(-20944.999 3811)"><rect class="a" width="16" height="16" transform="translate(20945 -3811)"/><path class="b" d="M121.589,106.852a.632.632,0,1,1,.893.893l-8.931,8.931a.632.632,0,1,1-.893-.893l8.931-8.931ZM121.4,113.4a.632.632,0,0,1,1.263,0v6.947a2.316,2.316,0,0,1-2.316,2.316H108.983a2.316,2.316,0,0,1-2.316-2.316V108.983a2.316,2.316,0,0,1,2.316-2.316h6.737a.632.632,0,0,1,0,1.263h-6.737a1.053,1.053,0,0,0-1.053,1.053v11.368a1.053,1.053,0,0,0,1.053,1.053h11.368a1.053,1.053,0,0,0,1.053-1.053V113.4Z" transform="translate(20838.332 -3917.667)"/></g></svg>