<svg xmlns="http://www.w3.org/2000/svg" width="14" height="14" viewBox="0 0 14 14"><defs><style>.a{fill:none;}.b{fill:#517eff;}</style></defs><g transform="translate(-493 -596)"><rect class="a" width="14" height="14" transform="translate(493 596)"/><path class="b" d="M140.036,122l.7,1.193c.317.541.634,1.072.951,1.612a.091.091,0,0,1-.019.13l-1.575,1.547c-.047.047-.075.056-.121,0-.522-.522-1.053-1.044-1.585-1.557a.077.077,0,0,1-.019-.112c.541-.913,1.081-1.836,1.622-2.75.019-.028.037-.047.047-.065Zm6.655,4.008a6.7,6.7,0,0,0-.308-1.2,6.812,6.812,0,0,0-3.663-3.943,5.66,5.66,0,0,0-.55-.224,4.26,4.26,0,0,0,2.051-3.094,4.175,4.175,0,0,0-1.1-3.533,4.268,4.268,0,0,0-6.049-.27c-.1.093-.2.2-.289.3a4.092,4.092,0,0,0-1.1,3.4,4.3,4.3,0,0,0,2.06,3.2c-.019.028-.056.028-.084.037-.177.065-.345.13-.513.205a6.826,6.826,0,0,0-3.085,2.787,6.9,6.9,0,0,0-.839,2.312.509.509,0,0,0,.27.578.555.555,0,0,0,.68-.149.715.715,0,0,0,.13-.364,5.75,5.75,0,0,1,10.672-1.734,6.125,6.125,0,0,1,.662,1.883.521.521,0,0,0,.624.4.515.515,0,0,0,.429-.587Zm-6.729-5.741a3.332,3.332,0,0,1-3.327-3.309v-.019a3.323,3.323,0,1,1,3.327,3.327Z" transform="translate(360.045 483.381)"/></g></svg>