<svg xmlns="http://www.w3.org/2000/svg" width="16" height="16" viewBox="0 0 16 16"><defs><style>.a{fill:none;}.b{fill:#fe6281;}</style></defs><g transform="translate(-21171 5283)"><rect class="a" width="16" height="16" transform="translate(21171 -5283)"/><g transform="translate(21171 -5283)"><path class="b" d="M6,11.554a5.627,5.627,0,0,1,7.11-5.43V1.185A1.187,1.187,0,0,0,11.925,0H1.26A1.187,1.187,0,0,0,.075,1.185V13.628A1.187,1.187,0,0,0,1.26,14.813H7.039A5.6,5.6,0,0,1,6,11.554ZM3.038,2.37h7.11a.593.593,0,1,1,0,1.185H3.038a.593.593,0,1,1,0-1.185Zm0,3.555h2.37a.593.593,0,0,1,0,1.185H3.038a.592.592,0,0,1,0-1.185Zm1.185,4.74H3.038a.593.593,0,1,1,0-1.185H4.223a.593.593,0,1,1,0,1.185Z" transform="translate(-0.075)"/><path class="b" d="M459.269,454.9a4.446,4.446,0,1,0,4.446,4.446A4.446,4.446,0,0,0,459.269,454.9Zm1.963,5.819a.417.417,0,1,1-.588.59l-1.372-1.372-1.372,1.372a.417.417,0,0,1-.588-.59l1.373-1.373-1.373-1.372a.417.417,0,0,1,.59-.59l1.372,1.372,1.372-1.372a.417.417,0,0,1,.59.59l-1.372,1.372,1.368,1.372Z" transform="translate(-447.718 -447.789)"/></g></g></svg>