<svg xmlns="http://www.w3.org/2000/svg" width="16" height="16" viewBox="0 0 16 16"><defs><style>.a{fill:none;}.b{fill:#bfc9d5;}</style></defs><g transform="translate(-21103 5283)"><rect class="a" width="16" height="16" transform="translate(21103 -5283)"/><g transform="translate(21103.57 -5283)"><path class="b" d="M361.143,66.286V76.572h1.143V66.286A2.292,2.292,0,0,0,360,64h-8v1.143h8A1.146,1.146,0,0,1,361.143,66.286Z" transform="translate(-347.428 -64)"/><path class="b" d="M106.286,192h-8A2.292,2.292,0,0,0,96,194.286v9.143a2.293,2.293,0,0,0,2.286,2.286h8a2.293,2.293,0,0,0,2.286-2.286v-9.143A2.292,2.292,0,0,0,106.286,192Zm-1.308,8.742a.571.571,0,0,1-.808.808l-1.884-1.884L100.4,201.55a.571.571,0,0,1-.808-.808l1.884-1.884-1.884-1.884a.571.571,0,0,1,.808-.808l1.884,1.884,1.884-1.884a.571.571,0,0,1,.808.808l-1.884,1.884Z" transform="translate(-96 -189.714)"/></g></g></svg>