<svg xmlns="http://www.w3.org/2000/svg" width="16" height="16" viewBox="0 0 16 16"><defs><style>.a{fill:none;}.b{fill:#0799ec;}</style></defs><g transform="translate(-21138.428 5283)"><rect class="a" width="16" height="16" transform="translate(21138.428 -5283)"/><path class="b" d="M69.723,32a.886.886,0,0,1,.6.257.76.76,0,0,1,.224.577.817.817,0,0,1-.789.834h-3.7a.834.834,0,0,1,0-1.668h3.666Zm4.007.974,0,0a1.8,1.8,0,0,1,2.033,1.916V46.1c0,1.363-.7,1.9-2.145,1.9H62.156c-1.447,0-1.967-.682-1.978-1.9V34.889c0-1.13.368-1.916,1.856-1.916H63.9a1.46,1.46,0,0,0-.031.276A1.353,1.353,0,0,0,65.1,34.642h5.622a1.361,1.361,0,0,0,1.2-1.393,1.379,1.379,0,0,0-.028-.276H73.73Zm-9.47,7.975,2.53,2.53a.651.651,0,0,0,.9,0l4.555-4.548a.635.635,0,1,0-.894-.9l-4.109,4.1-2.074-2.071a.637.637,0,0,0-.895,0,.624.624,0,0,0-.01.894Z" transform="translate(21078.459 -5315)"/></g></svg>