<svg xmlns="http://www.w3.org/2000/svg" width="14" height="14" viewBox="0 0 14 14"><defs><style>.a{fill:none;}.b{fill:#517eff;}</style></defs><g transform="translate(-302 -565)"><rect class="a" width="14" height="14" transform="translate(302 565)"/><g transform="translate(302 565)"><path class="b" d="M48.421,60.583h-.433v-4.94a.821.821,0,0,0-.441-.754l-3.932-2.617v-4.1l-.043-.092a.9.9,0,0,0-1.05-.581l-6.167,1.868a.963.963,0,0,0-.611.89V60.583H35.3a.444.444,0,0,0-.441.449.419.419,0,0,0,.441.449H48.421a.449.449,0,0,0,0-.9Zm-1.313-4.988v4.988H43.614V53.291l3.494,2.3Zm-10.5-5.337,6.119-1.868V60.583H36.608Z" transform="translate(-34.862 -47.48)"/><path class="b" d="M245.83,325.137h-2.62a.441.441,0,1,0,0,.882h2.62a.441.441,0,0,0,0-.882Zm0,2.617h-2.62a.416.416,0,0,0-.441.441v.005a.416.416,0,0,0,.441.441h2.62a.416.416,0,0,0,.441-.441V328.2a.417.417,0,0,0-.441-.441Zm0,2.628h-2.62a.413.413,0,0,0-.441.441v.005a.416.416,0,0,0,.441.441h2.62a.413.413,0,0,0,.441-.441v-.005a.417.417,0,0,0-.441-.441Zm3.5.446a.416.416,0,0,0,.441.441h.874a.413.413,0,0,0,.441-.441v-.005a.416.416,0,0,0-.441-.441h-.874a.413.413,0,0,0-.441.441Z" transform="translate(-239.711 -320.923)"/></g></g></svg>