<svg xmlns="http://www.w3.org/2000/svg" width="16" height="16" viewBox="0 0 16 16"><defs><style>.a{fill:none;}.b{fill:#517eff;}</style></defs><g transform="translate(-21067 5283)"><rect class="a" width="16" height="16" transform="translate(21067 -5283)"/><path class="b" d="M99.734,94.134a1.6,1.6,0,0,1,1.6,1.6v4a1.6,1.6,0,0,1-1.6,1.6h-4a1.6,1.6,0,0,1-1.6-1.6v-4a1.6,1.6,0,0,1,1.6-1.6h4Zm-8.8,0a1.6,1.6,0,0,1,1.6,1.6v4a1.6,1.6,0,0,1-1.6,1.6h-4a1.6,1.6,0,0,1-1.6-1.6v-4a1.6,1.6,0,0,1,1.6-1.6h4Zm0-8.8a1.6,1.6,0,0,1,1.6,1.6v4a1.6,1.6,0,0,1-1.6,1.6h-4a1.6,1.6,0,0,1-1.6-1.6v-4a1.6,1.6,0,0,1,1.6-1.6h4Zm9.6,5.2a.8.8,0,1,1,0,1.6h-5.6a.8.8,0,0,1,0-1.6Zm0-2.4a.8.8,0,1,1,0,1.6h-5.6a.8.8,0,1,1,0-1.6Zm0-2.4a.8.8,0,1,1,0,1.6h-5.6a.8.8,0,1,1,0-1.6Z" transform="translate(20981.666 -5368.333)"/></g></svg>