<svg xmlns="http://www.w3.org/2000/svg" width="14" height="14" viewBox="0 0 14 14"><defs><style>.a{fill:none;}.b{fill:#517eff;}</style></defs><g transform="translate(-495 -564)"><rect class="a" width="14" height="14" transform="translate(495 564)"/><g transform="translate(375.842 524.847)"><path class="b" d="M333.919,249.976a2.625,2.625,0,1,0,2.625,2.625A2.633,2.633,0,0,0,333.919,249.976Zm0,4.375a1.75,1.75,0,1,1,1.75-1.75A1.755,1.755,0,0,1,333.919,254.351Z" transform="translate(-207.761 -207.761)"/><path class="b" d="M126.158,39.153a5.676,5.676,0,0,0-5.687,5.687c0,5.075,5.687,8.312,5.687,8.312s5.687-3.237,5.687-8.312A5.676,5.676,0,0,0,126.158,39.153Zm0,12.95c-1.269-.831-4.812-3.544-4.812-7.262a4.812,4.812,0,1,1,9.625,0C130.971,48.559,127.427,51.272,126.158,52.1Z"/></g></g></svg>