<svg xmlns="http://www.w3.org/2000/svg" width="14" height="14" viewBox="0 0 14 14"><defs><style>.a{fill:none;}.b{fill:#517eff;}</style></defs><g transform="translate(-626 -600)"><rect class="a" width="14" height="14" transform="translate(626 600)"/><g transform="translate(626 600)"><path class="b" d="M258.707,1.312A2.188,2.188,0,1,1,256.513,3.5a2.191,2.191,0,0,1,2.194-2.187m0-1.312a3.5,3.5,0,1,0,3.511,3.5A3.505,3.505,0,0,0,258.707,0Z" transform="translate(-251.718)"/><path class="b" d="M639.2,800.32m.656,0h3.938a.58.58,0,0,1,.656.656h0a.58.58,0,0,1-.656.656h-3.937a.58.58,0,0,1-.656-.656h0A.58.58,0,0,1,639.852,800.32Z" transform="translate(-630.446 -789.378)"/><path class="b" d="M639.2,928m.656,0h3.938a.58.58,0,0,1,.656.656h0a.58.58,0,0,1-.656.656h-3.937a.58.58,0,0,1-.656-.656h0A.58.58,0,0,1,639.852,928Z" transform="translate(-630.446 -915.313)"/><path class="b" d="M13.048,420.782a.687.687,0,0,0,.6-1.019A6.8,6.8,0,0,0,7.794,416c-3.633,0-6.617,3.273-6.981,7.464a.74.74,0,0,0,.662.849.709.709,0,0,0,.653-.7c.294-3.395,2.721-6.3,5.666-6.3a5.7,5.7,0,0,1,4.654,3.115.7.7,0,0,0,.6.354Z" transform="translate(-0.804 -410.313)"/></g></g></svg>