<svg xmlns="http://www.w3.org/2000/svg" width="16" height="16" viewBox="0 0 16 16"><defs><style>.a{fill:none;}.b{fill:#00a87e;}</style></defs><g transform="translate(-22862 5559)"><rect class="a" width="16" height="16" transform="translate(22862 -5559)"/><g transform="translate(22862 -5558.271)"><path class="b" d="M80.447,129.434A1.442,1.442,0,0,0,79.005,128H65.889a1.442,1.442,0,0,0-1.441,1.434v1.781h16v-1.781Zm0,0" transform="translate(-64.448 -128)"/><path class="b" d="M77.268,450.812a4.791,4.791,0,0,1,3.18,1.2v-2.348h-16V455.7a1.442,1.442,0,0,0,1.441,1.435h6.8a4.823,4.823,0,0,1,4.581-6.32Zm0,0" transform="translate(-64.448 -444.297)"/><path class="b" d="M642.436,615.488a3.2,3.2,0,1,0,3.2,3.2A3.2,3.2,0,0,0,642.436,615.488Zm2.26,2.449-2.241,2.241c-.005.006-.007.014-.013.019a.51.51,0,0,1-.182.117.45.45,0,0,1-.624-.168l-1.46-1.46a.534.534,0,0,1,.755-.755l1.13,1.13,1.879-1.879a.533.533,0,0,1,.755.754Z" transform="translate(-629.641 -607.353)"/></g></g></svg>