<svg xmlns="http://www.w3.org/2000/svg" width="95" height="30" viewBox="0 0 95 30"><defs><style>.a{fill:currentColor;}</style></defs><g transform="translate(0 77.135) rotate(-90)"><path class="a" d="M75.678,94.991a1.44,1.44,0,0,1-.854-.273l-12.7-9.172-12.7,9.168a1.432,1.432,0,0,1-2.294-1.149V1.452A1.452,1.452,0,0,1,48.588,0H75.683a1.452,1.452,0,0,1,1.453,1.452V93.539a1.461,1.461,0,0,1-1.457,1.452Z" transform="translate(0 0)"/><path class="a" d="M277.851,186.3a1.252,1.252,0,0,0,1.252,1.248h12.6a1.252,1.252,0,0,0,0-2.5H279.1A1.252,1.252,0,0,0,277.851,186.3Zm0,8.028a1.252,1.252,0,0,0,1.252,1.252h12.6a1.252,1.252,0,0,0,0-2.5H279.1a1.252,1.252,0,0,0-1.252,1.248Z" transform="translate(-223.269 -179.077)"/></g></svg>