<svg xmlns="http://www.w3.org/2000/svg" width="14" height="14" viewBox="0 0 14 14"><defs><style>.a{fill:none;}.b{fill:#2f69e6;}</style></defs><g transform="translate(20674 11026)"><rect class="a" width="14" height="14" transform="translate(-20674 -11026)"/><path class="b" d="M229.458,145.858a7.527,7.527,0,0,1-.985-1.165l-.723-1.055a.5.5,0,1,1,.826-.564l.723,1.056a6.5,6.5,0,0,0,10.728,0l.722-1.056a.5.5,0,1,1,.826.564l-.723,1.055a7.45,7.45,0,0,1-.988,1.166l1.383,2.962a.5.5,0,1,1-.906.422l-1.27-2.72a7.5,7.5,0,0,1-2.233,1.111l.7,2.594a.5.5,0,1,1-.966.258l-.706-2.627a7.49,7.49,0,0,1-2.4,0l-.7,2.628a.5.5,0,1,1-.966-.258l.7-2.595a7.491,7.491,0,0,1-2.238-1.11l-1.27,2.72a.5.5,0,0,1-.906-.422l1.383-2.963Z" transform="translate(-20901.662 -11165.855)"/></g></svg>