<svg xmlns="http://www.w3.org/2000/svg" width="12" height="12" viewBox="0 0 12 12"><defs><style>.a{fill:none;}.b{fill:#fff;}</style></defs><g transform="translate(17231.399 12855.399)"><rect class="a" width="12" height="12" transform="translate(-17231.398 -12855.399)"/><path class="b" d="M4.507,10.313a5.09,5.09,0,0,1-1.346-.364,5.189,5.189,0,1,1,2.686.364l-.67.94ZM.714,5.178A4.463,4.463,0,1,0,5.178.714,4.468,4.468,0,0,0,.714,5.178Zm1.8,2.882V2.493H8.026V3H3.058V7.563H8.128v.5Zm.782-1.176a13.1,13.1,0,0,0,1.914-1.63q-.8-.774-1.657-1.532l.36-.346q.8.674,1.676,1.477A17.21,17.21,0,0,0,6.872,3.244l.468.321q-.674.888-1.366,1.647.8.741,1.654,1.587l-.442.458Q6.41,6.43,5.59,5.622A16.71,16.71,0,0,1,3.705,7.309,2.892,2.892,0,0,0,3.295,6.883Z" transform="translate(-17230.578 -12855.025)"/></g></svg>