<svg xmlns="http://www.w3.org/2000/svg" width="44" height="44"><defs><style>.cls-2{clip-path:url(#clip-path)}.cls-3{fill:#fff}</style><clipPath id="clip-path"><path id="矩形_184" d="M0 0h40.346v39.76H0z"/></clipPath></defs><g id="icon_byshouru" transform="translate(1.88 1.85)"><g id="组_121" transform="translate(.12 .15)"><g id="组_118" class="cls-2"><path id="路径_111" class="cls-3" d="M39.776 178.941h-6.29a4.078 4.078 0 0 1 0-8.156h6.285a3.9 3.9 0 0 1 .567.045v-8.662a3.778 3.778 0 0 0-3.576-3.427H3.745A3.785 3.785 0 0 0 0 162.547v24.93a3.78 3.78 0 0 0 3.188 3.283H37.4a3.8 3.8 0 0 0 2.944-3.02v-8.84a4.09 4.09 0 0 1-.571.036zm0 0" transform="translate(-.005 -151.048)"/></g><g id="组_119" class="cls-2"><path id="路径_112" class="cls-3" d="M675.48 457.71a1.792 1.792 0 1 0 1.792-1.79 1.791 1.791 0 0 0-1.792 1.79zm0 0" transform="translate(-642.724 -433.814)"/></g><g id="组_120" class="cls-2"><path id="路径_113" class="cls-3" d="M377.649 5.613l-2.2-3.979A3.759 3.759 0 0 0 370.676.4l-9.456 5.213zm0 0" transform="translate(-343.706 -.01)"/></g></g></g></svg>