<svg xmlns="http://www.w3.org/2000/svg" width="12" height="12" viewBox="0 0 12 12"><defs><style>.a{fill:none;}.b{fill:#fff;}</style></defs><g transform="translate(17897.19 12598.19)"><rect class="a" width="12" height="12" transform="translate(-17897.191 -12598.19)"/><g transform="translate(-17897.191 -12597.066)"><path class="b" d="M11.264,105.711h-.716a.74.74,0,0,1-.74-.74V103.1H2.2v1.871a.74.74,0,0,1-.74.74H.742a.74.74,0,0,1-.739-.74V96.7a.74.74,0,0,1,.739-.739h.716a.74.74,0,0,1,.74.739v4.206h9.066a.74.74,0,0,1,.74.739v3.326A.74.74,0,0,1,11.264,105.711Zm-.664-.791h.613V101.7H1.8a.4.4,0,0,1-.4-.4v-4.55H.794v8.169h.613v-2.215a.4.4,0,0,1,.4-.4h8.4a.4.4,0,0,1,.4.4v2.215Z" transform="translate(-0.003 -95.96)"/><path class="b" d="M208.207,239.136a1.538,1.538,0,1,1,1.538-1.538A1.54,1.54,0,0,1,208.207,239.136Zm0-2.286a.748.748,0,1,0,.748.748A.748.748,0,0,0,208.207,236.85Z" transform="translate(-204.246 -234.417)"/><path class="b" d="M484.894,210.019h-4.766a.4.4,0,0,1-.4-.4c0-2.226,0-2.975,1.4-2.975h1.181a2.979,2.979,0,0,1,2.975,2.915.4.4,0,0,1,0,.06A.4.4,0,0,1,484.894,210.019Zm-4.369-.791h3.934a2.188,2.188,0,0,0-2.149-1.789h-1.181c-.424,0-.441.046-.48.147A6.364,6.364,0,0,0,480.525,209.228Z" transform="translate(-474.111 -205.351)"/></g></g></svg>