<svg xmlns="http://www.w3.org/2000/svg" width="14" height="14" viewBox="0 0 14 14"><defs><style>.a{fill:none;}.b{fill:#fff;}</style></defs><g transform="translate(-680.741 -310.741)"><rect class="a" width="14" height="14" transform="translate(680.741 310.741)"/><g transform="translate(681.043 311.043)"><path class="b" d="M138.185,142.342l5.655-3.769,5.655,3.772a.678.678,0,0,0,.372.114.668.668,0,0,0,.372-1.225l-6.026-4.022a.67.67,0,0,0-.743,0l-6.027,4.015a.671.671,0,0,0-.186.929A.665.665,0,0,0,138.185,142.342Z" transform="translate(-137.142 -137.1)"/><path class="b" d="M149.057,287.931v-5.7L143.7,278.4l-5.359,3.83v5.7H137v1.34h13.4v-1.34Zm-3.351-2.679h-1.34v1.34h-1.34v-1.34h-1.34v-1.34h1.34v-1.34h1.34v1.34h1.34Z" transform="translate(-137 -275.876)"/></g></g></svg>