<svg xmlns="http://www.w3.org/2000/svg" width="14" height="14" viewBox="0 0 14 14"><defs><style>.a{fill:none;}.b{fill:#517eff;}</style></defs><g transform="translate(-529.93 -603.93)"><rect class="a" width="14" height="14" transform="translate(529.93 603.93)"/><g transform="translate(530.012 604.64)"><path class="b" d="M84.042,112.984a3.658,3.658,0,1,0-4.308,3.614v4.687a.549.549,0,1,0,1.1,0v-4.657A3.672,3.672,0,0,0,84.042,112.984Zm-3.658,2.571a2.571,2.571,0,1,1,2.561-2.571A2.571,2.571,0,0,1,80.384,115.555Zm6.786-.923v-4.421a.549.549,0,1,0-1.1,0v4.443a3.659,3.659,0,1,0,1.1-.022Zm-.476,6.212a2.571,2.571,0,1,1,2.561-2.571,2.571,2.571,0,0,1-2.561,2.571Z" transform="translate(-76.645 -109.34)"/><path class="b" d="M78.268,134.567H72.092a.551.551,0,1,1,0-1.1h6.176a.551.551,0,1,1,0,1.1Zm6.56-5.125a.546.546,0,0,1-.382-.155l-2.932-2.846-2.693,2.719a.55.55,0,1,1-.779-.777l2.921-2.949a.771.771,0,0,1,1.081-.011l3.164,3.072a.553.553,0,0,1,.013.779A.546.546,0,0,1,84.828,129.442Z" transform="translate(-71.541 -124.959)"/></g></g></svg>