<svg xmlns="http://www.w3.org/2000/svg" width="12" height="12" viewBox="0 0 12 12"><defs><style>.a{fill:none;}.b{fill:#fff;}</style></defs><g transform="translate(17210.189 12932.189)"><rect class="a" width="12" height="12" transform="translate(-17210.189 -12932.189)"/><g transform="translate(-17209.436 -12932)"><path class="b" d="M107.191,6.916l2.088-.418V5.438l-2.088.549Zm0,3.184h2.088V8.987l-2.088.151Zm0-1.6,2.088-.2V7.242l-2.088.351Zm0-3.2,2.088-.575v-1.1l-2.088.707Zm9.235.7a.243.243,0,0,0-.158-.2l-2.691-.785a.446.446,0,0,0-.317,0L110.57,5.8a.243.243,0,0,0-.158.2,7.288,7.288,0,0,0,.138,2.351,4.937,4.937,0,0,0,.839,1.88A3.932,3.932,0,0,0,113.3,11.6a.29.29,0,0,0,.234,0,3.931,3.931,0,0,0,1.913-1.37,4.936,4.936,0,0,0,.839-1.88A7.284,7.284,0,0,0,116.426,6Zm-.611,2.242a3.692,3.692,0,0,1-2.4,2.886,3.689,3.689,0,0,1-2.393-2.872,7.022,7.022,0,0,1-.147-2.047l2.54-.73,2.54.73a6.982,6.982,0,0,1-.144,2.034ZM112.6,4.3a4.535,4.535,0,0,1,1.721.069V1.148L113,0l-4.386,1.639v.41L112.6.707V4.3h0Z" transform="translate(-105.975)"/><path class="b" d="M3.907,166.526A4.507,4.507,0,0,1,5.622,165.3v-2.015h0l-1.179-.717L0,164.167l0,6.675H.585V164.49L3.907,163.4Zm1.855,1.444v-.356H7.287q-.014-.043-.057-.142a2.874,2.874,0,0,0-.114-.285l.428-.057q.028.071.071.2a2.2,2.2,0,0,1,.114.285h1.4v.356H7.644v.471H8.9v1.226a.4.4,0,0,1-.47.47q-.228.014-.485.014a2.937,2.937,0,0,0-.071-.356q.228.014.4.014.256.014.242-.242v-.77h-.87v1.753h-.4V168.8H6.4v1.4H6V168.44h1.24v-.47H5.762Z" transform="translate(0 -160.721)"/></g></g></svg>