<svg xmlns="http://www.w3.org/2000/svg" width="14" height="14" viewBox="0 0 14 14"><defs><style>.a{fill:none;}.b{fill:#517eff;}</style></defs><g transform="translate(-344 -565)"><rect class="a" width="14" height="14" transform="translate(344 565)"/><path class="b" d="M67.769,73.692a.538.538,0,1,0,.538.538A.533.533,0,0,0,67.769,73.692Zm0-6.462a.538.538,0,1,0,.538.538A.533.533,0,0,0,67.769,67.231Zm0,3.231a.538.538,0,1,0,.538.538A.533.533,0,0,0,67.769,70.462ZM75.846,64H66.154A2.16,2.16,0,0,0,64,66.154v9.692A2.16,2.16,0,0,0,66.154,78h9.692A2.16,2.16,0,0,0,78,75.846V66.154A2.16,2.16,0,0,0,75.846,64Zm1.077,11.846a1.08,1.08,0,0,1-1.077,1.077H66.154a1.08,1.08,0,0,1-1.077-1.077V66.154a1.08,1.08,0,0,1,1.077-1.077h9.692a1.08,1.08,0,0,1,1.077,1.077Zm-2.692-8.615H69.923a.538.538,0,1,0,0,1.077h4.308a.538.538,0,0,0,0-1.077Zm0,3.231H69.923a.538.538,0,1,0,0,1.077h4.308a.538.538,0,0,0,0-1.077Zm0,3.231H69.923a.538.538,0,1,0,0,1.077h4.308a.538.538,0,1,0,0-1.077Z" transform="translate(280 501)"/></g></svg>