<svg xmlns="http://www.w3.org/2000/svg" width="18" height="18"><defs><clipPath id="a"><path data-name="矩形 158" d="M0 0h12.752v12.751H0z"/></clipPath></defs><g data-name="组 118"><g data-name="组 117"><g data-name="组 116" transform="translate(2.636 2.636)" clip-path="url(#a)"><path data-name="路径 81" d="M3.193 5.637a13.077 13.077 0 0 0 2.2 2.517l.127.111a1.216 1.216 0 0 0 .86.334 1.32 1.32 0 0 0 .86-.334l.111-.1a12.928 12.928 0 0 0 2.2-2.532h1a.889.889 0 0 1 .844.621l1.306 4.145a.89.89 0 0 1-.064.7.944.944 0 0 1-.557.43l-4.523 1.18a.88.88 0 0 1-.765-.159l-2.181-1.641a.9.9 0 0 0-.749-.159l-2.755.685A.89.89 0 0 1 .04 10.299l1.226-4.03a.889.889 0 0 1 .86-.637h1.067zm3.17-5.638a3.127 3.127 0 0 1 3.121 3.122c0 1.911-1.879 3.616-2.851 4.539a.4.4 0 0 1-.542 0c-.99-.94-2.85-2.628-2.85-4.539A3.127 3.127 0 0 1 6.363-.001zm0 1.943a1.163 1.163 0 1 0 1.038 1.757 1.2 1.2 0 0 0 0-1.179 1.223 1.223 0 0 0-1.035-.573zm0 0"/></g></g></g></svg>