<svg xmlns="http://www.w3.org/2000/svg" width="18" height="18"><defs><clipPath id="a"><path data-name="矩形 159" d="M0 0h11.879v11.843H0z"/></clipPath></defs><g data-name="icon _order"><g data-name="组 121"><g data-name="组 120"><g data-name="组 119" clip-path="url(#a)" transform="translate(3 3)"><path data-name="路径 82" d="M2.965.994a1.974 1.974 0 0 0 1.979 1.969h1.978A1.974 1.974 0 0 0 8.898.994h.989a1.974 1.974 0 0 1 1.981 1.969v6.892a1.974 1.974 0 0 1-1.979 1.974H1.976A1.974 1.974 0 0 1-.002 9.855V2.963A1.974 1.974 0 0 1 1.976.994h.989zm0 0zm3.462 3.935a.492.492 0 1 0 0 .985h2.971a.492.492 0 1 0 0-.985zm0 2.954a.492.492 0 1 0 0 .985h2.971a.492.492 0 1 0 0-.985zM3.17 5.136l-.349-.348a.495.495 0 1 0-.7.7l.7.7a.494.494 0 0 0 .7 0l1.4-1.392a.492.492 0 0 0-.223-.832.5.5 0 0 0-.478.127L3.171 5.136zm0 2.954l-.349-.347a.5.5 0 0 0-.7 0 .491.491 0 0 0 0 .7l.7.7a.494.494 0 0 0 .7 0l1.4-1.392a.492.492 0 0 0-.223-.833.5.5 0 0 0-.478.127L3.171 8.089zM4.944.009h1.978a.985.985 0 1 1 0 1.969H4.944a.985.985 0 1 1 0-1.969zm0 0"/></g></g></g></g></svg>