<svg class="icon" viewBox="0 0 1024 1024" xmlns="http://www.w3.org/2000/svg" width="128" height="128"><defs><style/></defs><path d="M887 927H138.9c-25.6 0-46.5-19.5-46.5-43.4V415.2c0-23.9 20.8-43.4 46.5-43.4H887c25.6 0 46.5 19.5 46.5 43.4v468.4c0 23.9-20.9 43.4-46.5 43.4zm-729.9-60.4h711.8V432.2H157.1v434.4z"/><path d="M584 779.8H448.2v-36.2l12.8-.8c6.3-.4 24.3-1.6 30.1-3.7v-28.5h-55.4v-37.8h54.7c-.9-4.9-2.4-9.1-3.5-10.6l-.2-.2-64.1-89.3c-9-12.3-14.7-16.4-30.8-16.4h-13.7V519h118.1v37.1h-13.7c-5.2 0-9.3.1-12.4.2l51.5 71.8 48.2-71.6c-2.2-.1-4.8-.1-7.7-.1h-13.7V519h99.1v37.5H634c-3.5 0-14.2 0-17.8 1.8-1.4.7-2.8 2.6-6.1 7.6l-.1.1-67.9 100.7v6h48.8v37.8h-48.8v28.6c6.1 1.7 22 3 29.3 3.6l12.6 1v36.1zm-68.5-27.4h1.8c-.3-.7-.6-1.4-.9-2.2-.2.8-.6 1.5-.9 2.2zm-78.8-206c.2.2.3.4.5.6 0-.2.1-.4.1-.6h-.6zm323.8-281.1H279.7c-21.3 0-39.3-13.8-44.8-34.3s3-41.5 21.4-52.3l.5-.3 141.7-79.2c15.6-8.7 35.3-3.1 44 12.4 8.7 15.6 3.1 35.3-12.4 44l-80.6 45h411.1c17.8 0 32.3 14.5 32.3 32.3s-14.6 32.4-32.4 32.4z"/></svg>