<svg xmlns="http://www.w3.org/2000/svg" width="18" height="18" viewBox="0 0 18 18">
  <defs>
    <style>
      .cls-1 {
        opacity: 0;
      }

      .cls-2 {
        fill: currentColor;
      }
    </style>
  </defs>
  <g id="icon_package" transform="translate(-20 -314)">
    <rect id="矩形_46" data-name="矩形 46" class="cls-1" width="18" height="18" transform="translate(20 314)"/>
    <g id="组_109" data-name="组 109" transform="translate(23 315)">
      <path id="路径_80" data-name="路径 80" class="cls-2" d="M10.943,13.464H.67a.675.675,0,0,1-.67-.68V12.1H11.613v.68a.676.676,0,0,1-.67.68ZM0,4.083A.675.675,0,0,1,.67,3.4H2.457a3.35,3.35,0,1,1,6.7,0h1.787a.675.675,0,0,1,.67.68v7.159H0ZM7.816,3.4a2.01,2.01,0,1,0-4.02,0Zm0,0" transform="translate(0 1)"/>
    </g>
  </g>
</svg>
